<svg xmlns="http://www.w3.org/2000/svg" xmlns:xlink="http://www.w3.org/1999/xlink" width="500" zoomAndPan="magnify" viewBox="0 0 375 374.999991" height="500" preserveAspectRatio="xMidYMid meet" version="1.2"><defs><clipPath id="e098e6f5b4"><path d="M 187.5 0 C 83.945312 0 0 83.945312 0 187.5 C 0 291.054688 83.945312 375 187.5 375 C 291.054688 375 375 291.054688 375 187.5 C 375 83.945312 291.054688 0 187.5 0 Z M 187.5 0 "/></clipPath><clipPath id="849648eb77"><path d="M 99.015625 77.839844 L 165.765625 77.839844 L 165.765625 144.589844 L 99.015625 144.589844 Z M 99.015625 77.839844 "/></clipPath><clipPath id="e33eec5b35"><path d="M 132.390625 77.839844 C 113.957031 77.839844 99.015625 92.78125 99.015625 111.214844 C 99.015625 129.644531 113.957031 144.589844 132.390625 144.589844 C 150.820312 144.589844 165.765625 129.644531 165.765625 111.214844 C 165.765625 92.78125 150.820312 77.839844 132.390625 77.839844 Z M 132.390625 77.839844 "/></clipPath><clipPath id="842fcd3b85"><path d="M 212.046875 77.839844 L 278.796875 77.839844 L 278.796875 144.589844 L 212.046875 144.589844 Z M 212.046875 77.839844 "/></clipPath><clipPath id="018b5dcab1"><path d="M 245.421875 77.839844 C 226.988281 77.839844 212.046875 92.78125 212.046875 111.214844 C 212.046875 129.644531 226.988281 144.589844 245.421875 144.589844 C 263.855469 144.589844 278.796875 129.644531 278.796875 111.214844 C 278.796875 92.78125 263.855469 77.839844 245.421875 77.839844 Z M 245.421875 77.839844 "/></clipPath><clipPath id="02d42f0749"><path d="M 212.046875 237.660156 L 278.796875 237.660156 L 278.796875 304.410156 L 212.046875 304.410156 Z M 212.046875 237.660156 "/></clipPath><clipPath id="0a3b2c3f48"><path d="M 245.421875 237.660156 C 226.988281 237.660156 212.046875 252.601562 212.046875 271.035156 C 212.046875 289.464844 226.988281 304.410156 245.421875 304.410156 C 263.855469 304.410156 278.796875 289.464844 278.796875 271.035156 C 278.796875 252.601562 263.855469 237.660156 245.421875 237.660156 Z M 245.421875 237.660156 "/></clipPath><clipPath id="3d26e00f18"><path d="M 99.015625 237.660156 L 165.765625 237.660156 L 165.765625 304.410156 L 99.015625 304.410156 Z M 99.015625 237.660156 "/></clipPath><clipPath id="730775350e"><path d="M 132.390625 237.660156 C 113.957031 237.660156 99.015625 252.601562 99.015625 271.035156 C 99.015625 289.464844 113.957031 304.410156 132.390625 304.410156 C 150.820312 304.410156 165.765625 289.464844 165.765625 271.035156 C 165.765625 252.601562 150.820312 237.660156 132.390625 237.660156 Z M 132.390625 237.660156 "/></clipPath></defs><g id="b893847d1c"><g clip-rule="nonzero" clip-path="url(#e098e6f5b4)"><path style="fill:none;stroke-width:72;stroke-linecap:butt;stroke-linejoin:miter;stroke:#1e40af;stroke-opacity:1;stroke-miterlimit:4;" d="M 249.999994 0 C 111.927078 0 -0.000006 111.927084 -0.000006 250 C -0.000006 388.072917 111.927078 500.000001 249.999994 500.000001 C 388.072911 500.000001 499.999995 388.072917 499.999995 250 C 499.999995 111.927084 388.072911 0 249.999994 0 Z M 249.999994 0 " transform="matrix(0.75,0,0,0.75,0.0000045,0)"/></g><path style="fill:none;stroke-width:42;stroke-linecap:butt;stroke-linejoin:miter;stroke:#1e40af;stroke-opacity:1;stroke-miterlimit:4;" d="M -0.00206594 21.000842 L 154.596903 21.000841 " transform="matrix(0.000000001309,-0.75,0.75,0.000000001309,116.690776,251.744544)"/><path style="fill:none;stroke-width:42;stroke-linecap:butt;stroke-linejoin:miter;stroke:#1e40af;stroke-opacity:1;stroke-miterlimit:4;" d="M -0.000216013 20.9987 L 154.593544 20.9987 " transform="matrix(0.000000001309,-0.75,0.75,0.000000001309,230.290038,247.265463)"/><path style="fill:none;stroke-width:42;stroke-linecap:butt;stroke-linejoin:miter;stroke:#1e40af;stroke-opacity:1;stroke-miterlimit:4;" d="M -0.000445656 20.997691 L 154.593314 20.997691 " transform="matrix(-0.75,-0.000000001309,0.000000001309,-0.75,245.472322,205.494361)"/><g clip-rule="nonzero" clip-path="url(#849648eb77)"><g clip-rule="nonzero" clip-path="url(#e33eec5b35)"><path style="fill:none;stroke-width:58;stroke-linecap:butt;stroke-linejoin:miter;stroke:#1e40af;stroke-opacity:1;stroke-miterlimit:4;" d="M 44.564025 0.00122206 C 19.951379 0.00122206 0.00152294 19.951078 0.00152294 44.563724 C 0.00152294 69.171154 19.951379 89.126225 44.564025 89.126225 C 69.171455 89.126225 89.126526 69.171154 89.126526 44.563724 C 89.126526 19.951078 69.171455 0.00122206 44.564025 0.00122206 Z M 44.564025 0.00122206 " transform="matrix(0.748948,0,0,0.748948,99.014484,77.838928)"/></g></g><g clip-rule="nonzero" clip-path="url(#842fcd3b85)"><g clip-rule="nonzero" clip-path="url(#018b5dcab1)"><path style="fill:none;stroke-width:58;stroke-linecap:butt;stroke-linejoin:miter;stroke:#1e40af;stroke-opacity:1;stroke-miterlimit:4;" d="M 44.563205 0.00122206 C 19.950559 0.00122206 0.000703419 19.951078 0.000703419 44.563724 C 0.000703419 69.171154 19.950559 89.126225 44.563205 89.126225 C 69.175851 89.126225 89.125707 69.171154 89.125707 44.563724 C 89.125707 19.951078 69.175851 0.00122206 44.563205 0.00122206 Z M 44.563205 0.00122206 " transform="matrix(0.748948,0,0,0.748948,212.046348,77.838928)"/></g></g><g clip-rule="nonzero" clip-path="url(#02d42f0749)"><g clip-rule="nonzero" clip-path="url(#0a3b2c3f48)"><path style="fill:none;stroke-width:58;stroke-linecap:butt;stroke-linejoin:miter;stroke:#1e40af;stroke-opacity:1;stroke-miterlimit:4;" d="M 44.563205 0.0015401 C 19.950559 0.0015401 0.000703419 19.951396 0.000703419 44.564042 C 0.000703419 69.171472 19.950559 89.126543 44.563205 89.126543 C 69.175851 89.126543 89.125707 69.171472 89.125707 44.564042 C 89.125707 19.951396 69.175851 0.0015401 44.563205 0.0015401 Z M 44.563205 0.0015401 " transform="matrix(0.748948,0,0,0.748948,212.046348,237.659003)"/></g></g><g clip-rule="nonzero" clip-path="url(#3d26e00f18)"><g clip-rule="nonzero" clip-path="url(#730775350e)"><path style="fill:none;stroke-width:58;stroke-linecap:butt;stroke-linejoin:miter;stroke:#1e40af;stroke-opacity:1;stroke-miterlimit:4;" d="M 44.564025 0.0015401 C 19.951379 0.0015401 0.00152294 19.951396 0.00152294 44.564042 C 0.00152294 69.171472 19.951379 89.126543 44.564025 89.126543 C 69.171455 89.126543 89.126526 69.171472 89.126526 44.564042 C 89.126526 19.951396 69.171455 0.0015401 44.564025 0.0015401 Z M 44.564025 0.0015401 " transform="matrix(0.748948,0,0,0.748948,99.014484,237.659003)"/></g></g></g></svg>